<svg xmlns="http://www.w3.org/2000/svg" width="2200" height="2200" viewBox="0 0 2200 2200">
  <defs>
    <style>
      .cls-1 {
        fill: #fff;
        fill-rule: evenodd;
      }
    </style>
  </defs>
  <path id="Color_Fill_2" data-name="Color Fill 2" class="cls-1" d="M1374,11q3.495,22.5,7,45V80c0,9.528-.01,18.708-2,26q-0.495,6.5-1,13c-5.75,19.853-10.14,39.312-18,57h-1c-1.72,3.543-2.16,6.527-4,10h-1c-1.46,2.748-1.36,5.372-3,8-0.67.333-1.33,0.667-2,1-0.67,2-1.33,4-2,6-0.78,1.232-3.22,2.771-4,4-0.33,1.333-.67,2.667-1,4-0.67.333-1.33,0.667-2,1v2c-0.84,1.258-3.15,2.747-4,4v2l-3,2c-0.89,1.275-1.11,3.725-2,5l-3,2v2c-1.33,1-2.67,2-4,3v2c-1.67,1.333-3.33,2.667-5,4v2q-4.005,3.5-8,7v2l-6,5a195.008,195.008,0,0,1-24,21c-2.42,1.749-4.52,5.269-7,7-1.27.891-3.72,1.11-5,2-0.67,1-1.33,2-2,3h-2c-1.25.848-2.74,3.161-4,4h-2c-1.24.823-2.75,3.2-4,4l-4,1c-0.33.667-.67,1.333-1,2h-2c-0.95.55-2.18,2.488-3,3l-6,2c-0.33.667-.67,1.333-1,2-2.62,1.637-5.25,1.544-8,3-6.78,3.591-14.82,7.877-22,11h-3c-28.99,12.606-67.09,21.957-107,23-3.03,5.738-8.42,9.9-12,15-0.89,1.266-1.11,3.73-2,5l-3,2c-0.89,1.267-1.11,3.729-2,5l-3,2v2c-0.85,1.256-3.16,2.741-4,4v2c-0.67.333-1.33,0.667-2,1v2c-0.67.333-1.33,0.667-2,1-0.93,1.388-1.08,3.6-2,5-0.67.333-1.33,0.667-2,1-0.33,1.333-.67,2.667-1,4-0.79,1.234-3.21,2.766-4,4v2c-0.56.957-2.48,2.175-3,3-0.33,1.333-.67,2.667-1,4-0.67.333-1.33,0.667-2,1-0.33,1.333-.67,2.667-1,4-0.67.333-1.33,0.667-2,1-0.67,2-1.33,4-2,6-0.51.815-2.47,2.04-3,3v2h-1v2h-1v2c-0.47.891-2.5,3.11-3,4v2c-0.67.333-1.33,0.667-2,1-1.64,2.621-1.54,5.255-3,8h-1c-1.85,3.466-2.28,6.459-4,10h-1v3c-0.02.051-1.96,1.931-2,2-1.49,2.84-1.6,5.109-3,8h-1v3c-0.11.246-2.89,3.754-3,4v3h-1c-0.33,1.333-.67,2.667-1,4h-1c-1.23,2.766-.79,5.221-2,8l-2,2c-0.33,1.666-.67,3.334-1,5h-1c-0.33,2-.67,4-1,6l-2,2v3l-2,3v3h-1v3l-2,2v4c-1.79,5.016-4.532,9.407-5,16a79.384,79.384,0,0,1,18,2c4.4,1.152,11.34.043,15,1h16c11.64,0,27.15,1.627,37-1l24-1v-1h9v-1h7v-1h7c11.49-3.23,25.2-4.459,36-8l8-1c12.68-4.416,26.94-8.3,39-13l9-2,2-2h3l2-2h3c0.24-.105,3.76-2.894,4-3h3c0.24-.108,3.76-2.893,4-3h3c0.05-.02,1.94-1.967,2-2l4-1v-1h3c5.5-2.457,9.91-7.037,17-8a205.081,205.081,0,0,1,17-88v-3l2-2v-3h1c2.37-4.867,3.47-9.225,6-14h1c1.46-2.744,1.36-5.377,3-8,29.16-46.691,68.54-81.673,121-105,2.76-1.229,5.22-.788,8-2l2-2,30-10h4c6.5-2.149,15.13-4.006,22-6l13-1c26.39-7.268,59.17-1.946,89-2q3.495,22.5,7,45v41h-1v9h-1v7h-1v6h-1v5h-1v4h-1v4h-1v4h-1v4l-2,3v4a280.626,280.626,0,0,1-16,37c-1.71,3.211-2.11,6.968-4,10-0.67.333-1.33,0.667-2,1-0.67,2-1.33,4-2,6-0.78,1.233-3.22,2.77-4,4-0.33,1.333-.67,2.667-1,4-0.8,1.249-3.17,2.763-4,4-0.9,1.345-1.09,3.689-2,5l-3,2c-0.89,1.272-1.11,3.728-2,5l-3,2v2c-1.33,1-2.67,2-4,3v2c-1.67,1.333-3.33,2.667-5,4-13.62,18.68-30.94,32.709-50,46-0.67,1-1.33,2-2,3-1.31.915-3.65,1.1-5,2-0.33.667-.67,1.333-1,2-1.39.93-3.6,1.074-5,2-0.33.667-.67,1.333-1,2l-4,1c-0.33.667-.67,1.333-1,2l-4,1c-0.33.667-.67,1.333-1,2l-6,2c-0.33.667-.67,1.333-1,2l-6,2v1c-3.47,1.846-6.46,2.285-10,4v1h-3c-0.05.021-1.94,1.966-2,2l-4,1v1h-3l-2,2c-1.67.333-3.33,0.667-5,1v1l-6,1-2,2-39,11-11,1c-8.14,2.383-19.4,2.664-28,5-3.79,1.03-9.93.168-13,1-5.24,1.421-13.43-.239-18,1h-17c-0.75-.248-0.41-2.153-2-2v1l-9,3v1c-2.75,1.223-5.25.776-8,2-0.22.1-3.78,2.9-4,3l-6,1-2,2-6,1-2,2h-3l-3,2h-3v1h-3v1h-3c-9.86,3.852-21.72,7.411-32,11l-8,1c-7.88,2.6-18.05,4.605-26,7h-6c-4.73,1.376-12.12,2.623-17,4h-7v1h-7v1h-8v1h-10c-11.83,3.173-28.57,3-43,3h-41c-3.67-.986-10.62.176-15-1v-1c-3.23-.872-8.53-0.328-11-1h-9a66.855,66.855,0,0,0-14-2,98.7,98.7,0,0,1-3,23q-0.5,11-1,22h-1q-0.5,18-1,36c0,9.558-1.081,22.145,1,30q0.5,15,1,30h1c0.783,2.942.424,7.846,1,10v9c2.68,9.926,3.286,22.543,6,32v6l13,53c6.99-.821,15.02-5.671,21-8l34-9,13-1c27.74-7.511,74.88-2.552,98,5h4c5.26,1.727,12.04,4.042,17,6h3c10.85,4.626,22.01,9.7,32,15,2.75,1.458,5.38,1.363,8,3,0.33,0.667.67,1.333,1,2l4,1c0.82,0.518,2.05,2.445,3,3h2c1.23,0.784,2.77,3.213,4,4l4,1c0.67,1,1.33,2,2,3,1.28,0.891,3.72,1.108,5,2,2.06,1.436,3.96,4.542,6,6h2l3,4a136.859,136.859,0,0,1,17,14c3.37,3.373,5.17,8.061,11,9,4.21-3.715,16.65-4.761,23-7,11.69-4.122,25.82-6.978,38-11l9-1c7.25-2.258,17.45-3.794,25-6l13-1c5.95-1.664,14.81-2.3,21-4h9v-1c2.92-.8,7.84-0.414,10-1h11c3.98-1.059,11.31.243,16-1,7.57-2,19.74-1,29-1l58,1c5.93,1.6,15.14,1.406,21,3h9l43,7c0.96-5.709,4.01-10.5,6-15l6-18c0.02-.052,1.96-1.93,2-2,1.13-2.168.99-4.763,2-7h1c1.73-3.539,2.18-6.511,4-10h1c0.33-1.667.67-3.333,1-5h1c0.33-1.333.67-2.667,1-4,0.5-.813,2.47-2.044,3-3,0.33-1.333.67-2.667,1-4h1v-2h1v-2h1v-2h1v-2c0.47-.893,2.5-3.108,3-4v-2c14.92-23.894,29.77-47.453,46-70,1.33-1,2.67-2,4-3v-2c1.33-1,2.67-2,4-3v-2c1.67-1.333,3.33-2.667,5-4v-2c1.67-1.333,3.33-2.667,5-4v-2l6-5v-2q5.505-5,11-10v-2c3.34-4.573,9.95-6.074,11-13-1.99-2.38-.13-4.66-1-8-2.27-8.7-2-20.243-2-31,0-37.3,7.67-68.087,19-94v-3h1c0.33-1.333.67-2.667,1-4,0.03-.06,1.98-1.957,2-2v-3c0.18-.41,2.76-3.546,3-4,0.33-1.333.67-2.667,1-4,0.67-.333,1.33-0.667,2-1,1.31-2.1,1.69-5.9,3-8,0.67-.333,1.33-0.667,2-1,0.33-1.333.67-2.667,1-4,0.79-1.248,3.18-2.764,4-4v-2c0.84-1.259,3.15-2.746,4-4v-2l3-2v-2l3-2v-2c0.67-.333,1.33-0.667,2-1,1.07-1.184,1.3-3.03,2-4,1.67-1.333,3.33-2.667,5-4v-2l6-5c5.7-5.7,10.33-11.139,17-16,1.67-2,3.33-4,5-6h2l3-4h2c0.67-1,1.33-2,2-3a366.748,366.748,0,0,1,65-36l6-1c11.75-5.018,25.91-8.977,39-13h5c6.69-2,15.91-3.074,23-5l18-1c4.99-1.328,13.43-1,20-1l46,1a74.189,74.189,0,0,0,3,17v7h1v6h1v6h1v8h1c0.93,3.511.28,9.252,1,12,1.62,6.178.24,18.361-1,23v13h-1v8c-2.19,7.894-3.6,17.691-6,25-0.33,2.666-.67,5.334-1,8h-1v3h-1v3h-1v3l-2,3c-0.33,2-.67,4-1,6l-2,2v3l-2,2v3c-0.1.231-2.9,3.768-3,4v3h-1c-2,4.126-2.87,7.968-5,12h-1c-1.46,2.747-1.36,5.375-3,8-0.67.333-1.33,0.667-2,1-0.33,1.333-.67,2.667-1,4-0.67.333-1.33,0.667-2,1-0.33,1.333-.67,2.667-1,4-0.67.333-1.33,0.667-2,1-0.93,1.4-1.07,3.6-2,5-0.67.333-1.33,0.667-2,1v2c-0.67.333-1.33,0.667-2,1-0.9,1.347-1.09,3.688-2,5-1.43,2.056-4.54,3.956-6,6v2c-1.33,1-2.67,2-4,3v2c-1.33,1-2.67,2-4,3v2q-4.005,3.5-8,7v2c-1.67,1.333-3.33,2.667-5,4l-9,10h-2q-3.495,4-7,8h-2c-1.33,1.667-2.67,3.333-4,5h-2l-3,4h-2c-0.67,1-1.33,2-2,3h-2c-0.67,1-1.33,2-2,3-25.56,17.855-54.89,31.787-87,43h-4l-3,2-7,1v1l-8,1v1l-10,1v1l-14,2-3,4-3,1q-3.495,4-7,8c-9.12,9.119-18.28,17.409-26,28l-6,5v2c-1.67,1.333-3.33,2.667-5,4v2c-1.33,1-2.67,2-4,3v2l-3,2v2c-1.74,2.419-5.27,4.527-7,7-0.89,1.273-1.11,3.724-2,5l-3,2v2c-0.67.333-1.33,0.667-2,1v2c-0.84,1.259-3.15,2.746-4,4v2l-3,2v2c-0.67.333-1.33,0.667-2,1-0.33,1.333-.67,2.667-1,4-0.67.333-1.33,0.667-2,1-0.93,1.41-1.07,3.587-2,5-0.67.333-1.33,0.667-2,1-0.67,2-1.33,4-2,6-0.67.333-1.33,0.667-2,1-0.33,1.333-.67,2.667-1,4-0.67.333-1.33,0.667-2,1-1.31,2.1-1.69,5.9-3,8-0.67.333-1.33,0.667-2,1q-3.495,8-7,16c-4.61,8.7-9.95,18.827-14,28v3l-2,2a36.329,36.329,0,0,0-3,11c7.05,0.5,14.56,4.637,20,7l9,2v1c1.67,0.333,3.33.667,5,1l2,2,6,1,2,2h3c0.26,0.117,3.74,2.882,4,3h3c0.26,0.119,3.73,2.881,4,3h3c0.26,0.119,3.73,2.881,4,3h3v1l6,2v1l9,3v1c4.11,2.013,7.97,2.862,12,5v1c2.74,1.465,5.38,1.362,8,3,0.33,0.667.67,1.333,1,2h2c0.89,0.5,3.11,2.523,4,3h2v1h2v1l4,1c0.33,0.667.67,1.333,1,2l6,2c4.11,2.571,8.94,6.426,13,9l4,1c1.23,0.786,2.77,3.212,4,4l4,1c0.33,0.667.67,1.333,1,2,1.4,0.931,3.59,1.071,5,2,0.33,0.667.67,1.333,1,2,1.33,0.33,2.67.67,4,1,1.25,0.8,2.76,3.17,4,4,1.34,0.9,3.69,1.09,5,2,0.67,1,1.33,2,2,3h2c1.26,0.85,2.74,3.14,4,4h2c0.67,1,1.33,2,2,3,1.27,0.89,3.73,1.11,5,2,2.05,1.44,3.95,4.55,6,6h2c0.67,1,1.33,2,2,3h2c0.67,1,1.33,2,2,3h2c1,1.33,2,2.67,3,4h2c1,1.33,2,2.67,3,4h2c1,1.33,2,2.67,3,4h2c0.33,0.67.67,1.33,1,2,0.86,0.8,2.15,2.38,3,3h2c1.33,1.67,2.67,3.33,4,5h2q3,3.495,6,7h2q4.5,4.995,9,10c1,0.33,2,.67,3,1,1,1.33,2,2.67,3,4h11q16.5,2.505,33,5c7.97,2.47,17.57,5.11,25,8,2,0.33,4,.67,6,1l2,2c2.79,1.21,5.23.77,8,2,0.23,0.1,3.77,2.9,4,3h3v1c2.88,1.4,5.17,1.5,8,3v1c2,0.67,4,1.33,6,2,0.33,0.67.67,1.33,1,2,2,0.67,4,1.33,6,2,0.33,0.67.67,1.33,1,2,1.33,0.33,2.67.67,4,1,1.25,0.79,2.76,3.18,4,4h2c1.26,0.84,2.75,3.15,4,4h2c0.67,1,1.33,2,2,3h2c0.67,1,1.33,2,2,3h2c0.67,1,1.33,2,2,3,1,0.33,2,.67,3,1,1.67,2,3.33,4,5,6h2q3.495,4.005,7,8,5.505,4.995,11,10v2c2,1.67,4,3.33,6,5v2c1.33,1,2.67,2,4,3v2c1,0.67,2,1.33,3,2v2c1,0.67,2,1.33,3,2,14.7,21.06,26.33,44.98,37,70,0.67,3,1.33,6,2,9,4.43,11.42,7.42,25.55,11,38v6c1.68,5.94,2.34,14.79,4,21v11c1.25,4.7,1,12.72,1,19,0,16.91-1.83,32.35-2,48q-22.005,3.495-44,7h-17c-4.49,1.13-19.41.5-25-1q-7.995-.495-16-1c-7.05-2.01-16.31-3.79-23-6h-4c-4.56-1.59-10.5-4.25-15-6-2-.33-4-0.67-6-1l-2-2c-2.79-1.21-5.23-.77-8-2-0.04-.02-1.94-1.97-2-2-1.33-.33-2.67-0.67-4-1v-1h-2v-1h-2v-1h-2c-0.86-.45-3.14-2.55-4-3-3.21-1.71-6.97-2.11-10-4-0.33-.67-0.67-1.33-1-2-1.33-.33-2.67-0.67-4-1-0.33-.67-0.67-1.33-1-2-1.33-.33-2.67-0.67-4-1-0.33-.67-0.67-1.33-1-2-1.4-.93-3.6-1.07-5-2-0.33-.67-0.67-1.33-1-2-1.35-.9-3.69-1.09-5-2-0.67-1-1.33-2-2-3h-2c-0.67-1-1.33-2-2-3h-2c-0.67-1-1.33-2-2-3h-2c-1.33-1.67-2.67-3.33-4-5h-2c-1.67-2-3.33-4-5-6a109.059,109.059,0,0,1-24-24c-2-1.67-4-3.33-6-5-11.99-16.48-23.02-33.4-34-51-0.33-1.33-.67-2.67-1-4h-1c-0.67-2-1.33-4-2-6h-1v-3c-0.02-.04-1.97-1.94-2-2-0.33-1.33-.67-2.67-1-4h-1v-3h-1c-0.33-1.33-.67-2.67-1-4h-1q-6.495-19.5-13-39v-4h-1v-4h-1v-5h-1v-4h-1v-6c-5.26-18.17-6.77-43.58-7-66-6.98-3.15-12.02-9.8-18-14-1.27-.89-3.73-1.11-5-2-0.67-1-1.33-2-2-3-1.27-.89-3.73-1.11-5-2-0.67-1-1.33-2-2-3h-2c-1.26-.85-2.74-3.16-4-4h-2c-0.33-.67-0.67-1.33-1-2h-2c-0.33-.67-0.67-1.33-1-2-1.39-.93-3.6-1.08-5-2-0.33-.67-0.67-1.33-1-2-1.33-.33-2.67-0.67-4-1-1.23-.79-2.77-3.21-4-4-1.33-.33-2.67-0.67-4-1-4.06-2.56-8.89-6.43-13-9-2.09-1.31-5.9-1.69-8-3-0.33-.67-0.67-1.33-1-2q-7.995-3.495-16-7c-5.11-2.71-10.89-6.28-16-9-1.33-.33-2.67-0.67-4-1-0.07-.03-1.95-1.98-2-2h-3c-0.05-.02-1.94-1.97-2-2-1.33-.33-2.67-0.67-4-1v-1h-3c-0.24-.11-3.76-2.89-4-3h-3l-2-2c-1.67-.33-3.33-0.67-5-1v-1h-3l-2-2c-2-.33-4-0.67-6-1l-2-2c-3-.67-6-1.33-9-2-3.93-1.55-6.4-3.6-12-4a45.852,45.852,0,0,1-2,11v8h-1v7h-1v8h-1v10h-1c-1.15,4.4-.04,11.33-1,15v16c0,11.65-1.61,27.14,1,37q1.005,16.5,2,33c2.13,7.86,2.84,18.35,5,26v6c5.71,19.81,9.51,41.21,17,59v3h1v3h1v3l2,3v3l2,2c1.21,2.8.77,5.22,2,8,0.1,0.22,2.9,3.78,3,4v3c0.1,0.23,2.9,3.77,3,4,1.43,3.24,4.79,15.77,7,17h12q10.995,1.005,22,2,17.505,4.005,35,8v1h3l3,2h3l2,2c2,0.33,4,.67,6,1l2,2h3c0.22,0.09,3.78,2.9,4,3h3v1c2.89,1.39,5.17,1.5,8,3v1c2,0.67,4,1.33,6,2,0.33,0.67.67,1.33,1,2,2,0.67,4,1.33,6,2,0.82,0.51,2.05,2.45,3,3h2c1.25,0.79,2.76,3.18,4,4h2c1.26,0.84,2.75,3.15,4,4h2c0.67,1,1.33,2,2,3h2c0.67,1,1.33,2,2,3h2c1,1.33,2,2.67,3,4h2c1.67,2,3.33,4,5,6h2q3.495,4.005,7,8,5.505,4.995,11,10v2c2,1.67,4,3.33,6,5v2c1.33,1,2.67,2,4,3v2c1,0.67,2,1.33,3,2v2c1,0.67,2,1.33,3,2,14.7,21.07,26.34,44.95,37,70,0.33,2,.67,4,1,6,3.15,8.13,6.35,18.39,9,27,1.52,4.93.55,9.03,2,14,4.58,15.67,6,34.4,6,54,0,8.37.76,19.28-1,26v8c-0.02,7.11-.19,13.04-2,18a111.99,111.99,0,0,0-27,4q-7.5.495-15,1v1h-16c-7.95,2.05-28.31.11-36-2q-6.495-.495-13-1l-34-9-2-2c-2-.33-4-0.67-6-1v-1c-1.67-.33-3.33-0.67-5-1l-2-2h-3v-1c-2-.67-4-1.33-6-2-0.06-.03-1.95-1.98-2-2h-3c-0.07-.03-1.9-1.95-2-2h-2c-0.33-.67-0.67-1.33-1-2h-2v-1h-2c-0.89-.48-3.11-2.5-4-3h-2c-0.33-.67-0.67-1.33-1-2-1.33-.33-2.67-0.67-4-1-0.33-.67-0.67-1.33-1-2-1.33-.33-2.67-0.67-4-1-1.25-.79-2.76-3.18-4-4h-2c-1.26-.84-2.75-3.15-4-4h-2c-0.67-1-1.33-2-2-3h-2c-2.05-1.45-3.95-4.54-6-6h-2c-0.67-1-1.33-2-2-3-1-.33-2-0.67-3-1-1.67-2-3.33-4-5-6-16.56-12.08-29.11-28.2-41-45-1-.67-2-1.33-3-2-0.91-1.31-1.1-3.65-2-5-0.67-.33-1.33-0.67-2-1v-2c-0.67-.33-1.33-0.67-2-1-0.93-1.4-1.07-3.6-2-5-0.67-.33-1.33-0.67-2-1-0.33-1.33-.67-2.67-1-4-0.67-.33-1.33-0.67-2-1-0.33-1.33-.67-2.67-1-4-0.67-.33-1.33-0.67-2-1-1.31-2.1-1.69-5.9-3-8-0.67-.33-1.33-0.67-2-1-0.33-1.33-.67-2.67-1-4h-1c-0.67-2-1.33-4-2-6h-1v-3c-0.02-.04-1.97-1.94-2-2-0.33-1.33-.67-2.67-1-4h-1v-3c-0.1-.23-2.9-3.77-3-4-16.67-37.73-23.04-87.86-25-140,1.33-.33,2.67-0.67,4-1-0.34-4.76-2.58-6.85-4-10-0.33-2-.67-4-1-6l-2-2c-0.33-2-.67-4-1-6l-2-2c-0.67-3-1.33-6-2-9-3.78-9.72-7.36-21.01-11-31v-4c-2.88-8.25-5.19-19.43-8-28v-5c-2.44-7.89-3.52-18.79-6-27v-7h-1v-7h-1v-8h-1v-10c-4.29-15.8-3-38.6-3-58,0-8.28-.94-19.4,1-26,1.32-4.49-.01-11.59,1-15,0.96-3.27.35-8.8,1-11v-9h1v-9h1v-7h1v-7c0.88-3.153,4.34-16.566,3-18-3.82-3.189-12.25-1.444-18-3-10.62-2.873-24.93-2.083-36-5h-14c-11.34-2.945-28.83-1-42-1-7.76,0-17.87-.634-24,1h-15c-8.6,2.312-20.61,1.7-29,4h-7c-10.76,2.987-23.77,3.945-34,7l-10,1-37,10q1.995,6,4,12h1c0.33,2,.67,4,1,6l2,2q4.5,16.005,9,32,1.005,9,2,18c7.51,27.73,2.55,74.88-5,98v4c-1.73,5.26-4.04,12.04-6,17v3c-4.63,10.85-9.7,22.01-15,32-1.46,2.75-1.36,5.38-3,8-0.67.33-1.33,0.67-2,1-0.33,1.33-.67,2.67-1,4-0.52.82-2.45,2.05-3,3v2c-0.78,1.23-3.21,2.77-4,4-0.33,1.33-.67,2.67-1,4-1,.67-2,1.33-3,2-0.89,1.28-1.11,3.72-2,5-1.44,2.06-4.54,3.96-6,6v2c-1.33,1-2.67,2-4,3-4.19,5.78-8.05,11.05-13,16-3.13,3.13-7.56,5.21-9,10,3.31,3.78,3.02,10.93,5,16,4.88,12.53,7.65,27.89,12,41,0.33,3,.67,6,1,9,3.96,12.67,5.23,28.73,9,42v7h1v8h1v8c1.43,5.23,1.55,13.69,3,19q0.495,15,1,30c3.01,11.28,1,28.87,1,42v18c-1.19,4.41-1.59,14.39-2,19v11c-1.92,7.13-2.91,17.67-3,26h1v1c5.55,0.12,8.17,2.46,12,4,2,0.33,4,.67,6,1l2,2h3v1c1.67,0.33,3.33.67,5,1l2,2h3l2,2h3v1c1.33,0.33,2.67.67,4,1v1h3c0.27,0.12,3.73,2.88,4,3h3v1c3.54,1.73,6.51,2.18,10,4,0.07,0.04,1.94,1.97,2,2,1.67,0.33,3.33.67,5,1,0.33,0.67.67,1.33,1,2,2,0.67,4,1.33,6,2v1c1.33,0.33,2.67.67,4,1v1h2v1h2c0.87,0.46,3.13,2.53,4,3,1.33,0.33,2.67.67,4,1,0.33,0.67.67,1.33,1,2,2.09,1.31,5.91,1.69,8,3,0.33,0.67.67,1.33,1,2,1.33,0.33,2.67.67,4,1,0.33,0.67.67,1.33,1,2,1.33,0.33,2.67.67,4,1,0.33,0.67.67,1.33,1,2h2c0.33,0.67.67,1.33,1,2,1.33,0.33,2.67.67,4,1,0.33,0.67.67,1.33,1,2h2c4.32,2.87,8.69,7.12,13,10h2c1.26,0.84,2.75,3.15,4,4h2c0.67,1,1.33,2,2,3,1.27,0.89,3.73,1.11,5,2,0.67,1,1.33,2,2,3h2c0.67,1,1.33,2,2,3h2c0.67,1,1.33,2,2,3h2c0.67,1,1.33,2,2,3h2c1,1.33,2,2.67,3,4h2c0.33,0.67.67,1.33,1,2,0.86,0.8,2.15,2.38,3,3h2c1.33,1.67,2.67,3.33,4,5h2c1.67,2,3.33,4,5,6,12.44,9.09,23.22,20.21,34,31q3,3.495,6,7c1,0.67,2,1.33,3,2v2c0.19,0.25,2.83,2.92,3,3h31c2.72,2.09,7.96-.1,12,1,6.21,1.69,15.06,2.25,21,4h5c10.2,3.16,21.63,6.35,31,10,2,0.33,4,.67,6,1v1c1.67,0.33,3.33.67,5,1,0.23,0.1,3.77,2.9,4,3h3v1c2.88,1.4,5.17,1.5,8,3v1c2,0.67,4,1.33,6,2,14.59,9.09,28.35,19.05,42,29q3,3.495,6,7c6.34,6.34,12.61,11.6,18,19,1.67,1.33,3.33,2.67,5,4v2c1,0.67,2,1.33,3,2v2c1,0.67,2,1.33,3,2v2c1,0.67,2,1.33,3,2,0.92,1.31,1.1,3.65,2,5,0.67,0.33,1.33.67,2,1v2c0.67,0.33,1.33.67,2,1,0.93,1.4,1.07,3.6,2,5,0.67,0.33,1.33.67,2,1,0.33,1.33.67,2.67,1,4,0.67,0.33,1.33.67,2,1,0.33,1.33.67,2.67,1,4a288.827,288.827,0,0,1,20,39c0.33,2,.67,4,1,6,4.61,10.8,8.33,24.07,12,36v5c1.91,6.39,3.18,15.35,5,22q0.495,9,1,18c1.22,4.57-.4,12.73,1,18,0.58,2.2,1.97,8.27,1,12h-1q-0.495,19.005-1,38a73.124,73.124,0,0,0-17,3h-6v1h-7v1h-6v1q-10.5.495-21,1c-5.45,1.41-16.55,1.45-22,0h-13c-7.53-2.03-16.96-2.89-24-5h-5c-7.73-2.39-16.82-5.21-24-8-2-.33-4-0.67-6-1-68.12-29.11-121.04-74.88-151-142-0.02-.05-1.97-1.93-2-2-1.48-2.84-1.6-5.11-3-8h-1c-1.23-2.77-.79-5.22-2-8l-2-2q-5.505-16.5-11-33v-4c-2.22-6.69-3.96-15.95-6-23v-6c-1.84-6.45-2.17-16.19-4-23-1.08-4.01,1.17-9.36-1-12-1.66-5.42-7.39-8.39-11-12-9.29-9.29-18.17-18.16-29-26-0.33-.67-0.67-1.33-1-2-1.18-1.08-3.03-1.3-4-2-1.33-1.67-2.67-3.33-4-5h-2c-0.67-1-1.33-2-2-3h-2c-0.67-1-1.33-2-2-3h-2c-0.67-1-1.33-2-2-3h-2c-0.67-1-1.33-2-2-3h-2c-1.26-.85-2.74-3.15-4-4h-2c-0.67-1-1.33-2-2-3-1.31-.92-3.65-1.1-5-2-1.24-.82-2.75-3.2-4-4-1.33-.33-2.67-0.67-4-1-0.33-.67-0.67-1.33-1-2-1.41-.93-3.59-1.07-5-2-0.33-.67-0.67-1.33-1-2-2-.67-4-1.33-6-2-0.33-.67-0.67-1.33-1-2h-2c-0.95-.55-2.18-2.49-3-3-2-.67-4-1.33-6-2-0.33-.67-0.67-1.33-1-2h-2c-0.89-.5-3.11-2.53-4-3h-2v-1h-2v-1h-2v-1h-2c-10.02-5.31-21.38-11.38-32-16-2-.33-4-0.67-6-1l-2-2c-4.88-2.12-9.59-2.99-14-5v2c-2.5,2.93-1.5,6.75-3,11h-1c-0.33,2.33-.67,4.67-1,7l-2,3v4c-5,13.98-10.27,29.74-16,43-0.33,2-.67,4-1,6-11.21,25.89-22.59,52.99-37,76v2c-0.61,1.09-2.38,2.91-3,4v2c-0.67.33-1.33,0.67-2,1-0.67,2-1.33,4-2,6-0.67.33-1.33,0.67-2,1-0.33,1.33-.67,2.67-1,4-0.67.33-1.33,0.67-2,1-0.33,1.33-.67,2.67-1,4-0.67.33-1.33,0.67-2,1-0.33,1.33-.67,2.67-1,4-0.67.33-1.33,0.67-2,1v2c-0.67.33-1.33,0.67-2,1-0.33,1.33-.67,2.67-1,4-2.63,4.14-7.26,8.9-10,13v2c-0.67.33-1.33,0.67-2,1v2c-0.84,1.26-3.15,2.75-4,4v2c-1,.67-2,1.33-3,2-0.89,1.27-1.11,3.73-2,5-1.44,2.05-4.55,3.95-6,6v2c-1,.67-2,1.33-3,2v2c-1,.67-2,1.33-3,2v2c-1,.67-2,1.33-3,2v2c-1.63,2.27-6.36,5.73-8,8v2c-0.67.33-1.33,0.67-2,1-1.07,1.18-1.3,3.03-2,4-1.67,1.33-3.33,2.67-5,4v2c-2,1.67-4,3.33-6,5-1.64,2.25-2.18,4.08-4,6-1,.67-2,1.33-3,2v4c-2.51,3.28.28,10.26-1,15q-1.995,13.5-4,27h-1v5h-1v4h-1v4h-1v4h-1v3l-2,3c-0.33,2.33-.67,4.67-1,7l-2,2c-0.33,2-.67,4-1,6-3.14,7.33-7.4,15.22-11,22-1.71,3.21-2.11,6.97-4,10-0.67.33-1.33,0.67-2,1-0.33,1.33-.67,2.67-1,4-0.52.82-2.45,2.05-3,3v2c-0.67.33-1.33,0.67-2,1-0.9,1.36-1.08,3.68-2,5-1,.67-2,1.33-3,2-0.89,1.27-1.11,3.73-2,5-1,.67-2,1.33-3,2v2c-1.33,1-2.67,2-4,3v2c-1.67,1.33-3.33,2.67-5,4v2c-2,1.67-4,3.33-6,5-6.02,6.02-10.96,11.88-18,17-1.33,1.67-2.67,3.33-4,5h-2c-1,1.33-2,2.67-3,4h-2c-0.67,1-1.33,2-2,3-1.27.89-3.72,1.11-5,2-0.67,1-1.33,2-2,3-1.31.92-3.65,1.1-5,2-1.24.82-2.75,3.21-4,4-1.33.33-2.67,0.67-4,1-0.33.67-.67,1.33-1,2-1.33.33-2.67,0.67-4,1-14.7,9.24-31.044,16.78-48,24-3,.67-6,1.33-9,2-9.97,3.86-22.289,6.72-33,10h-5c-5.155,1.51-12.819,2.59-18,4h-9c-22.9,6.12-54.2.1-78,0-2.284-21.4-7-40.19-7-65,0-6.27-.256-14.3,1-19q0.5-8.505,1-17l8-34h1v-3h1v-3l2-3v-3l2-2v-3l2-2v-3c0.1-.23,2.9-3.77,3-4v-3h1c1.718-3.54,2.161-6.53,4-10h1c1.459-2.75,1.365-5.37,3-8,0.667-.33,1.333-0.67,2-1q1-3,2-6c0.51-.82,2.449-2.05,3-3v-2c0.784-1.23,3.213-2.77,4-4,0.333-1.33.667-2.67,1-4,1-.67,2-1.33,3-2,0.891-1.28,1.108-3.72,2-5,1.434-2.05,4.549-3.95,6-6v-2c1.759-2.48,6.351-5.74,8-8,7.8-10.71,16.3-20.19,27-28q3-3.495,6-7h2c1-1.33,2-2.67,3-4h2c1-1.33,2-2.67,3-4h2l2-3c1.274-.89,3.724-1.11,5-2l2-3h2c1.254-.85,2.742-3.16,4-4h2c1.236-.82,2.752-3.21,4-4,1.333-.33,2.667-0.67,4-1,0.333-.67.667-1.33,1-2,1.333-.33,2.667-0.67,4-1,0.333-.67.667-1.33,1-2h2c0.888-.5,3.111-2.53,4-3h2v-1h2v-1h2v-1h2c38.62-20.46,86.42-33.53,144-35,1.29-5.01,6.41-8.31,9-12,0.89-1.26,1.11-3.73,2-5,1-.67,2-1.33,3-2v-2c0.85-1.26,3.16-2.74,4-4v-2c0.67-.33,1.33-0.67,2-1v-2c2.87-4.3,7.22-8.65,10-13,0.33-1.33.67-2.67,1-4,0.79-1.23,3.21-2.77,4-4v-2c0.55-.95,2.48-2.18,3-3,0.67-2,1.33-4,2-6,13.45-21.51,25.24-45.79,36-70v-3l2-2v-3l2-2c0.33-1.67.67-3.33,1-5h1v-3h1c0.33-2,.67-4,1-6l2-2c0.67-3,1.33-6,2-9,1.76-4.5,4.4-10.45,6-15,1.26-3.58.75-7.42,2-11,1.65-4.71,3.72-8.49,4-15a144.138,144.138,0,0,1-29-4h-11c-4.19-1.09-13.82-.89-18-2h-40v1c-4.67,1.26-12.02-.07-16,1h-12c-5.03,1.37-13.14,1.65-18,3h-7c-7.87,2.27-18.25,3.66-26,6h-5c-16.17,5.07-34,9.13-49,15-3,.67-6,1.33-9,2l-2,2h-3l-2,2c-1.667.33-3.333,0.67-5,1v1c-2.773,1.21-5.241.77-8,2-0.247.11-3.752,2.89-4,3h-3c-0.049.02-1.934,1.97-2,2-1.333.33-2.667,0.67-4,1v1c-3.032,1.36-12.8,3.8-14,6v6c1.57,1.85,1,6.62,1,10q-0.5,12.495-1,25l-6,36h-1c-1.295,3.97-.611,7.09-2,11-4.664,13.13-9.87,26.5-16,38v2h-1v2h-1v2c-0.473.89-2.5,3.11-3,4v2c-0.667.33-1.333,0.67-2,1-0.333,1.33-.667,2.67-1,4-0.785,1.23-3.213,2.77-4,4-0.333,1.33-.667,2.67-1,4-1.108,1.74-3.852,3.36-5,5-0.889,1.27-1.111,3.73-2,5-1,.67-2,1.33-3,2v2l-4,3v2c-1.667,1.33-3.333,2.67-5,4v2c-2,1.67-4,3.33-6,5-6.018,6.02-10.962,11.88-18,17-1.333,1.67-2.667,3.33-4,5h-2c-1,1.33-2,2.67-3,4h-2l-2,3c-1.273.89-3.724,1.11-5,2l-2,3c-1.31.92-3.651,1.1-5,2-1.237.82-2.752,3.2-4,4-1.333.33-2.667,0.67-4,1-0.333.67-.667,1.33-1,2-1.333.33-2.667,0.67-4,1-14.662,9.23-31.12,16.77-48,24-3,.67-6,1.33-9,2-13.1,5.1-28.583,7.8-43,12h-6v1h-7v1h-8v1H672c-4.7,1.25-12.725,1-19,1-16.994,0-32.36-1.77-48-2q-3.5-22.5-7-45v-26a190.165,190.165,0,0,1,13-70q0.5-3,1-6c4.136-9.64,9.24-20.06,14-29,1.461-2.74,1.362-5.38,3-8,19.244-30.83,40.916-58.99,70-80,2.418-1.75,4.526-5.27,7-7,1.272-.89,3.725-1.11,5-2l2-3c1.309-.92,3.652-1.1,5-2,0.333-.67.667-1.33,1-2,1.393-.93,3.6-1.07,5-2,0.333-.67.667-1.33,1-2h2c0.951-.55,2.181-2.49,3-3,2-.67,4-1.33,6-2,0.333-.67.667-1.33,1-2,3.027-1.89,6.788-2.3,10-4,9.63-5.1,20.572-10.52,31-15,2-.33,4-0.67,6-1,16.1-6.92,34.836-9.79,53-15l32-3v-1h3v-1c2-.67,4-1.33,6-2v-1c1.333-.33,2.667-0.67,4-1,0.333-.67.667-1.33,1-2h2c0.1-.06,1.922-1.96,2-2h3v-1c3.539-1.73,6.526-2.16,10-4v-1c2.329-1.23,4.476-.87,7-2,0.049-.02,1.934-1.97,2-2,1.333-.33,2.667-0.67,4-1v-1h3c0.25-.11,3.75-2.89,4-3h3c0.23-.1,3.776-2.9,4-3h3v-1h3l2-2c2-.33,4-0.67,6-1,21.364-9.19,46.336-14.64,70-22h5c5.83-1.76,14.02-3.29,20-5q9.495-1.005,19-2v-1h7v-1h8v-1h10c3.08-.82,9.18.01,13-1v-1q18.495-.495,37-1,22.005,0.495,44,1c11.56,3.08,26.83,1.86,38,5,0.48,0.14,14,2,14,2v-1c3.23-3.9.44-14.95,2-21,2.94-11.4,2-29.07,2-43,0-9.25,1.01-21.44-1-29v-11a75.9,75.9,0,0,0-2-17v-10h-1v-8h-1v-8c-2-7.29-2.99-17.03-5-24-0.33-3.67-.67-7.33-1-11-4.47-14.89-6.45-31.79-12-46l-30,12h-4c-7.1,2.45-16.38,4.82-24,7q-6.495.495-13,1c-11.5,3.11-39.6,5.56-53,2h-12v-1h-7v-1h-7v-1h-6c-5.22-1.51-12.02-3.36-17-5h-4v-1c-2.33-.33-4.67-0.67-7-1v-1h-3l-3-2h-3l-2-2c-2-.33-4-0.67-6-1l-2-2h-3c-0.23-.1-3.766-2.9-4-3h-3v-1c-3.542-1.72-6.528-2.16-10-4v-1c-3.212-1.71-6.97-2.11-10-4-0.333-.67-0.667-1.33-1-2-1.333-.33-2.667-0.67-4-1-0.822-.52-2.047-2.44-3-3h-2c-1.234-.78-2.767-3.21-4-4-1.333-.33-2.667-0.67-4-1l-2-3c-1.277-.89-3.724-1.11-5-2l-2-3h-2c-9.532-6.76-17.809-15.81-26-24-2.988-2.99-6.775-5.26-9-9-13.966,5.19-29.79,9.01-44,14-2.666.33-5.334,0.67-8,1-7.756,2.58-18.12,4.53-26,7h-5c-10.588,3.2-24,3.9-35,7h-7c-11.228,3.1-26.522,1.87-38,5H731c-12.649,3.37-35.15,1-50,1H660v-1c-4.58-1.25-12.528-.44-16-1H633v-1c-2.93-.8-7.83-0.41-10-1h-9a124.033,124.033,0,0,0-18-3c-7.778,21.51-14.83,42.62-24,63h-1c-2.378,4.86-3.465,9.23-6,14h-1c-0.333,1.33-.667,2.67-1,4h-1v2h-1v2h-1v2h-1v2c-0.461.87-2.531,3.13-3,4-0.333,1.33-.667,2.67-1,4-0.667.33-1.333,0.67-2,1q-1,3-2,6c-0.667.33-1.333,0.67-2,1q-1,3-2,6c-0.667.33-1.333,0.67-2,1-0.333,1.33-.667,2.67-1,4-0.667.33-1.333,0.67-2,1-0.333,1.33-.667,2.67-1,4-0.667.33-1.333,0.67-2,1-0.333,1.33-.667,2.67-1,4-0.667.33-1.333,0.67-2,1v2c-0.667.33-1.333,0.67-2,1-0.929,1.39-1.075,3.6-2,5-0.667.33-1.333,0.67-2,1-0.333,1.33-.667,2.67-1,4-1,.67-2,1.33-3,2v2c-0.853,1.26-3.144,2.74-4,4v2c-1,.67-2,1.33-3,2-0.889,1.27-1.111,3.73-2,5-1,.67-2,1.33-3,2v2c-1,.67-2,1.33-3,2v2c-1,.67-2,1.33-3,2v2c-1,.67-2,1.33-3,2v2c-1,.67-2,1.33-3,2v2c-1.666,1.33-3.334,2.67-5,4v2c-1.666,1.33-3.334,2.67-5,4v2c-2,1.67-4,3.33-6,5v2q-4,3.495-8,7v2q-11.5,10.995-23,22v41q-3,19.005-6,38l-13,39h-1c-2,4.13-2.865,7.97-5,12h-1c-1.707,3.21-2.11,6.96-4,10-7.748,12.45-16.443,24.25-25,36q-4.5,4.005-9,8c-2.828,3.14-4.591,7.51-8,10h-2q-3.5,4.005-7,8h-2c-1.333,1.67-2.667,3.33-4,5-12.549,9.07-25.781,17.76-39,26-2.625,1.64-5.252,1.54-8,3-10.6,5.62-22.46,11.08-34,16-3,.67-6,1.33-9,2-8.394,3.26-18.941,6.22-28,9h-5c-6.685,2-15.907,3.07-23,5q-9.5.495-19,1c-4.7,1.25-12.725,1-19,1q-22.5-.495-45-1v-1h-1c-0.177-11.05-2.454-21.71-5-31v-7c-2.14-8.06-2-18.54-2-29,0-6.27-.256-14.3,1-19v-10h1v-7h1v-6h1v-5c3.295-10.68,6.2-22.24,10-32q0.5-3,1-6c22.948-53.69,56.923-96.53,102-128h2c1.237-.84,2.747-3.2,4-4,1.333-.33,2.667-0.67,4-1,1.233-.78,2.767-3.22,4-4h2c0.949-.55,2.183-2.49,3-3,2.1-1.31,5.9-1.69,8-3,0.333-.67.667-1.33,1-2,2-.67,4-1.33,6-2v-1c2.824-1.5,5.115-1.6,8-3v-1h3c0.045-.02,1.937-1.97,2-2,1.333-.33,2.667-0.67,4-1v-1h3l2-2c1.666-.33,3.334-0.67,5-1v-1c2-.33,4-0.67,6-1l2-2,43-12h6c7.847-2.29,18.627-2.74,27-5,3.555-.96,7.7.89,10-1,4.476-1.32,6.119-5.12,9-8a183,183,0,0,0,20-23c1.62-2.26,6.373-5.74,8-8v-2c1-.67,2-1.33,3-2v-2c1-.67,2-1.33,3-2v-2c1-.67,2-1.33,3-2v-2c1-.67,2-1.33,3-2v-2c0.844-1.26,3.146-2.74,4-4v-2c1-.67,2-1.33,3-2v-2c0.829-1.24,3.2-2.75,4-4,0.333-1.33.667-2.67,1-4,0.667-.33,1.333-0.67,2-1,0.936-1.41,1.071-3.58,2-5,0.667-.33,1.333-0.67,2-1,0.333-1.33.667-2.67,1-4,8.716-13.93,17.19-28.98,25-44,0.333-1.67.667-3.33,1-5h1c0.333-1.33.667-2.67,1-4,0.031-.06,1.979-1.95,2-2,1.238-2.74.793-5.23,2-8,0.1-.23,2.893-3.76,3-4v-3l2-2q0.5-3,1-6l2-2v-3h1v-3h1v-3l2-3c0.605-1.28-.535-0.5-1-1-2.8-2.41-5.908-1.53-10-3v-1h-3l-3-2h-3v-1c-2.333-.33-4.667-0.67-7-1-12.251-4.78-26.243-9.83-38-15-2.764-1.22-5.248-.77-8-2-0.254-.11-3.745-2.89-4-3h-3a800.925,800.925,0,0,1-132-75c-2.055-1.44-3.955-4.55-6-6h-2l-2-3h-2l-2-3h-2c-1-1.33-2-2.67-3-4h-2c-1-1.33-2-2.67-3-4h-2c-1-1.33-2-2.67-3-4h-2l-2-3c-0.808-.78-2.18-2.4-3-3h-2l-5-6h-2q-3-3.495-6-7h-2c-0.84-.61-2.159-2.21-3-3l-2-3h-7q-17-2.505-34-5-17-4.995-34-10c-7.239-3.1-15.249-7.42-22-11-3.213-1.71-6.968-2.11-10-4-0.333-.67-0.667-1.33-1-2-1.333-.33-2.667-0.67-4-1-0.333-.67-0.667-1.33-1-2-1.333-.33-2.667-0.67-4-1-0.333-.67-0.667-1.33-1-2h-2c-1.258-.84-2.747-3.15-4-4h-2l-2-3h-2l-2-3h-2l-2-3h-2c-1.333-1.67-2.667-3.33-4-5h-2q-4.5-4.995-9-10H90a30.636,30.636,0,0,1-3-3v-2q-5.5-4.995-11-10v-2l-4-3v-2l-4-3v-2c-1-.67-2-1.33-3-2-0.891-1.27-1.11-3.72-2-5-1-.67-2-1.33-3-2-0.916-1.31-1.1-3.65-2-5-0.824-1.24-3.206-2.75-4-4-0.333-1.33-.667-2.67-1-4-0.667-.33-1.333-0.67-2-1-0.333-1.33-.667-2.67-1-4-10.909-17.344-19.071-36.5-27-57v-4l-2-3v-3H20l-1-7H18l-1-9H16v-4H15v-5H14v-5H13v-5H12v-7H11v-7H10L9,877c-1.62-6.108-1.609-18.892,0-25l1-34h1v-1a48.979,48.979,0,0,0,13-2h7v-1h7v-1h7v-1l22-1v-1c4.616-1.21,12.92.179,16,1H98v1h8v1h7v1h6c18.641,5.575,37.185,9.543,54,17v1c4.127,2,7.968,2.865,12,5v1c2.748,1.459,5.372,1.365,8,3q0.5,1,1,2l6,2q0.5,1,1,2l4,1c1.248,0.793,2.764,3.176,4,4h2q0.5,1,1,2h2c1.258,0.838,2.746,3.15,4,4h2l2,3h2l2,3h2l3,4h2l4,5h2l7,8h2l3,4,9,8v2l9,8v2l5,4v2l3,2v2l4,3c0.886,1.249,1.119,3.737,2,5l3,2c0.915,1.311,1.1,3.652,2,5l2,1c0.93,1.394,1.074,3.6,2,5l2,1,1,4a310.528,310.528,0,0,1,22,41c7.434,17.064,11.277,36.39,17,55v5c2.259,7.64,2.825,17.93,5,26q1,13.995,2,28c0.107,4.2-1.028,11.53,1,14,1.509,4.88,5.281,5.39,9,8l2,3c1.277,0.89,3.712,1.11,5,2l2,3h2c0.333,0.67.667,1.33,1,2h2c0.333,0.67.667,1.33,1,2h2c0.333,0.67.667,1.33,1,2,1.388,0.93,3.6,1.08,5,2,0.333,0.67.667,1.33,1,2h2c0.333,0.67.667,1.33,1,2,1.394,0.93,3.587,1.08,5,2,0.333,0.67.667,1.33,1,2,1.333,0.33,2.667.67,4,1,1.234,0.78,2.769,3.21,4,4h2c0.957,0.55,2.178,2.48,3,3,2,0.67,4,1.33,6,2,0.333,0.67.667,1.33,1,2,1.333,0.33,2.667.67,4,1,0.333,0.67.667,1.33,1,2,2.086,1.31,5.893,1.7,8,3,0.333,0.67.667,1.33,1,2h2c0.889,0.49,3.111,2.52,4,3h2v1h2v1h2v1h2c16.121,8.46,33.825,16.35,51,24h3l2,2c2,0.33,4,.67,6,1l2,2c2,0.33,4,.67,6,1,5.528,2.12,12.5,4.81,18,7h3v1h3v1h4l3,2h1v-1c3.379-4.08,1.284-19.35,3-26,4.551-17.63,2-40.38,2-60,0-14.66-.675-30.85-4-43v-9h-1v-6h-1v-6h-1v-6l-11-46-2-3v-3h-1v-4h-1v-3h-1v-3l-2-3q-0.5-3-1-6l-2-2q-0.5-3-1-6l-2-2q-0.5-3-1-6c-0.1-.217-2.9-3.779-3-4-1.221-2.754-.774-5.251-2-8l-17-34c-34.494.835-64.18-7.563-88-18h-3l-2-2h-3v-1c-4.12-2-7.974-2.862-12-5v-1l-6-2c-13.527-8.435-26.306-17.737-39-27l-15-16c-24.979-25-42.976-55.948-58-91q-1-4.5-2-9c-3.795-8.884-6.976-20.246-10-30v-5c-1.859-6.205-3.223-14.6-5-21q-0.5-8.5-1-17c-5.8-21.662.036-50.592,0-74h1v-1a150.947,150.947,0,0,0,33-5l22-1c9.668-2.5,32.265-.438,41,2l12,1c18.71,5.42,37.236,9.547,54,17v1c4.126,2,7.967,2.865,12,5v1c3.214,1.705,6.968,2.11,10,4l1,2,4,1,1,2,4,1,1,2c1.4,0.927,3.6,1.07,5,2l1,2h2l1,2c1.348,0.9,3.688,1.085,5,2l2,3h2l2,3h2l3,4h2l3,4c7.2,5.216,12.849,10.842,19,17l6,5v2l8,7v2l5,4v2c1.577,2.211,5.489,4.87,7,7,0.887,1.25,1.119,3.737,2,5l3,2v2c0.848,1.254,3.161,2.742,4,4v2c0.823,1.236,3.206,2.752,4,4q0.5,2,1,4l2,1q0.5,2,1,4l2,1v2h1v2c0.48,0.895,2.5,3.106,3,4v2c25.424,40.843,37.369,100.757,38,166l-3,1c6.029,14.211,12.834,29.663,19,44v3l2,3v3h1v3c6.82,17.443,11.183,38.23,17,57l1,10c3.152,10.51,4.01,24.11,7,35v9c3.958,14.69,4,35.19,4,53q0.5,9.495,1,19c-1.826,7.46,1.142,19.92-1,28h-1c-1.088,4.11-.1,10.63-1,14v11a129.626,129.626,0,0,0-4,28,110.049,110.049,0,0,1,22,3h11v1c4.4,1.15,11.334.04,15,1h40c19.86,0,43.85.33,60-4h9c9.558-2.6,21.855-3.37,31-6,3.666-.33,7.334-0.67,11-1,10.341-3.19,23.121-5.59,33-9,4.578-1.58,11.873-1.24,15-4,1.068-1.13.376-.05,1-2-3.36-3.15-3.012-8.31-5-13l-2-2v-3l-2-3v-3h-1l-1-7h-1q-1-6-2-12c-2.712-8.41-3.586-19.91-6-29v-12c-2.119-8.14-2.159-25.86,0-34v-12h1v-7h1v-7h1v-6c1.508-5.22,3.362-12.02,5-17v-4h1l1-7h1v-3l2-3v-3l2-2q0.5-3,1-6l2-2v-3c0.1-.23,2.9-3.77,3-4v-3h1c1.717-3.543,2.161-6.527,4-10h1c1.705-3.213,2.11-6.969,4-10l2-1q0.5-2,1-4c0.518-.822,2.445-2.047,3-3v-2c0.784-1.234,3.212-2.767,4-4q0.5-2,1-4l3-2c0.891-1.278,1.108-3.723,2-5l3-2c5.768-8.131,11.081-16.078,18-23,4.075-4.077,12.958-9.54,14-16-3.371-3.819-3.065-10.543-5-16-3.447-9.72-6.824-21.89-10-32l-3-18c-3.364-10.79-4.811-24.715-8-36v-7h-1v-7h-1v-7h-1v-8c-1.49-5.492-1.471-14.36-3-20q-0.5-16-1-32c-2.614-9.865-1-25.351-1-37V677c1.337-4.974,1.546-15.828,2-21V645h1c0.873-3.226.327-8.525,1-11v-9a131.042,131.042,0,0,0,4-27c-5.489-.857-10.559-3.239-15-5l-9-2-2-2-9-2-2-2h-3l-2-2h-3v-1l-5-1-2-2c-2.756-1.217-5.257-.77-8-2-0.051-.023-1.931-1.964-2-2-2.17-1.134-4.76-.992-7-2v-1c-3.54-1.733-6.511-2.178-10-4-0.07-.037-1.946-1.976-2-2h-3v-1l-4-1q-0.5-1-1-2h-2c-0.18-.1-1.824-1.906-2-2l-16-7c-23.9-14.919-47.453-29.771-70-46l-3-4h-2l-3-4h-2l-4-5h-2l-4-5h-2l-5-6h-2l-10-11h-2l-15-16H647c-1.68,1.43-5.825,1.076-9,1h-4v-1H616l-32-5c-8.024-2.528-17.581-5.081-25-8l-6-1c-8.161-3.515-17.4-7.9-25-12l-4-1q-0.5-1-1-2h-2c-0.207-.117-1.793-1.882-2-2h-2q-0.5-1-1-2l-4-1-1-2-4-1c-1.735-1.108-3.36-3.852-5-5-1.271-.889-3.728-1.111-5-2-2.057-1.437-3.957-4.538-6-6h-2l-2-3c-1.169-1.105-3.037-1.3-4-2l-6-7h-2l-3-4-8-7v-2l-8-7v-2l-4-3v-2c-1.746-2.418-5.269-4.525-7-7-0.915-1.308-1.1-3.653-2-5-2.8-4.2-7.3-8.758-10-13l-1-4c-9.042-14.361-16.937-30.538-24-47q-1-4.5-2-9c-4.281-10.993-7.278-24-11-36v-5c-1.519-5.157-2.564-12.822-4-18v-9c-5.529-20.57-.956-50.851-1-74a180.628,180.628,0,0,0,27-5h7c10.059-2.7,22-3,35-3l26,1v1l14,1c20.459,5.92,39.912,9.957,58,18v1c4.126,2,7.968,2.865,12,5v1c2.748,1.459,5.372,1.365,8,3q0.5,1,1,2l6,2c1.232,0.776,2.771,3.218,4,4l4,1q0.5,1,1,2h2c1.258,0.835,2.747,3.151,4,4h2c2.054,1.433,3.955,4.55,6,6,37.127,26.336,66.447,62.132,86,106,0.021,0.047,1.966,1.935,2,2q1,3,2,6h1q0.5,2.5,1,5c0.022,0.044,1.988,1.972,2,2v3l2,2q0.5,3,1,6l2,2v3l2,3v3h1v4l2,3v3h1q0.5,4,1,8l2,3v5h1v4h1v5h1v5h1q0.5,6,1,12a91.318,91.318,0,0,1,3,21l12,11,2,3h2l8,9h2l5,6h2l4,5h2l3,4h2c2.469,1.742,4.58,5.256,7,7h2l2,3c1.276,0.895,3.713,1.109,5,2l2,3h2c1.255,0.841,2.745,3.158,4,4,1.348,0.9,3.676,1.085,5,2l2,3h2q0.5,1,1,2l4,1q0.5,1,1,2c1.409,0.936,3.577,1.071,5,2q0.5,1,1,2l6,2q0.5,1,1,2h2c0.956,0.547,2.179,2.484,3,3,2.087,1.313,5.891,1.7,8,3q0.5,1,1,2h2c0.888,0.493,3.111,2.523,4,3h2v1h2v1h2v1h2v1h2v1h2c0.857,0.449,3.143,2.541,4,3l4,1c0.066,0.034,1.948,1.976,2,2h3v1l4,1c0.062,0.032,1.952,1.978,2,2h3c0.237,0.1,3.754,2.889,4,3h3l2,2h3l2,2h3l2,2,9,2,2,2h3c2.489,0.964,9.185,4.675,11,3,3.928-4.894,4.44-16.493,7-23,4.881-12.408,9.784-26.148,15-38,1.216-2.764.771-5.248,2-8,0.114-.255,2.885-3.744,3-4v-3c5.637-12.552,12.618-26.035,19-38v-2h1v-2h1v-2h1v-2c0.474-.892,2.5-3.109,3-4v-2l2-1c1.309-2.09,1.693-5.9,3-8l2-1c1.308-2.089,1.693-5.909,3-8l2-1q0.5-2,1-4l2-1q0.5-2,1-4l2-1q0.5-2,1-4c0.519-.823,2.443-2.047,3-3v-2l2-1c0.931-1.4,1.071-3.593,2-5l2-1q0.5-2,1-4c0.8-1.249,3.17-2.763,4-4v-2c0.84-1.259,3.15-2.746,4-4v-2l3-2v-2c0.85-1.261,3.14-2.74,4-4v-2l3-2c0.89-1.271,1.11-3.728,2-5l3-2v-2l3-2v-2l3-2v-2c1.54-2.141,5.41-4.776,7-7v-2c0.67-.333,1.33-0.667,2-1,1.07-1.182,1.3-3.033,2-4,1.67-1.333,3.33-2.667,5-4,3.8-5.211,7.14-10.909,12-15-2.36-121.038,68.76-195.562,151-232,20.42-9.045,43.04-13.4,66-20l13-1C1311.46,5.733,1344.12,11.126,1374,11ZM1137,254c8.81-.177,16.42-3.452,23-6h3v-1h3v-1h3l3-2h3v-1c1.67-.333,3.33-0.667,5-1v-1l4-1c0.06-.031,1.96-1.981,2-2h3c0.41-.182,3.55-2.758,4-3l4-1c0.33-.667.67-1.333,1-2,2.1-1.309,5.9-1.69,8-3,0.33-.667.67-1.333,1-2l4-1c0.33-.667.67-1.333,1-2h2c1.26-.836,2.75-3.151,4-4h2c0.67-1,1.33-2,2-3h2c0.67-1,1.33-2,2-3h2c6.62-4.76,13.21-12.2,19-18l6-5v-2l6-5v-2c1.75-2.416,5.27-4.522,7-7v-2c0.85-1.253,3.16-2.742,4-4v-2c0.82-1.235,3.21-2.753,4-4,0.33-1.333.67-2.667,1-4,0.67-.333,1.33-0.667,2-1v-2c0.5-.885,2.53-3.114,3-4v-2h1v-2h1v-2h1c1.5-2.83,1.61-5.11,3-8h1v-3l2-2c0.33-2,.67-4,1-6l2-3v-3h1v-3h1v-4c2.01-6.175,3.94-12.7,4-21h-1c-3.17,2.533-15.97,2.448-21,4q-16.005,5-32,10l-2,2h-3C1187.21,131.935,1136.96,179.616,1137,254ZM473,215c9.813,56.37,33.18,101.543,72,129l2,3c1.317,0.917,3.646,1.1,5,2,1.232,0.82,2.754,3.217,4,4l6,2c18.881,11.747,43.481,19.069,74,19-0.7-7.541-3.677-15-6-21v-3h-1v-3l-2-3v-3l-2-2c-1.21-2.789-.771-5.229-2-8h-1c-1.4-2.887-1.5-5.172-3-8h-1v-2h-1v-2h-1v-2h-1v-2c-0.471-.889-2.5-3.113-3-4v-2c-11.879-19.047-27.089-38.97-45-52l-4-5h-2l-2-3h-2l-2-3c-1.316-.917-3.647-1.1-5-2-1.235-.822-2.753-3.209-4-4l-4-1q-0.5-1-1-2c-2.107-1.312-5.889-1.69-8-3q-0.5-1-1-2c-2.148-1.327-4.541-.911-7-2-0.039-.017-1.943-1.971-2-2l-4-1v-1h-3v-1h-3C502.172,220.4,487.939,215.221,473,215Zm882,270c8.81-.177,16.42-3.452,23-6h3v-1h3v-1h3l3-2h3v-1l5-1v-1l4-1c0.06-.031,1.96-1.981,2-2h3c0.41-.182,3.55-2.758,4-3l4-1c0.33-.667.67-1.333,1-2,2.1-1.309,5.9-1.69,8-3,0.33-.667.67-1.333,1-2l4-1c0.33-.667.67-1.333,1-2h2c1.26-.836,2.75-3.151,4-4h2c0.67-1,1.33-2,2-3h2c0.67-1,1.33-2,2-3h2c6.62-4.76,13.21-12.2,19-18l6-5v-2l6-5v-2c1.75-2.416,5.27-4.522,7-7v-2c0.85-1.253,3.16-2.742,4-4v-2c0.82-1.235,3.21-2.753,4-4,0.33-1.333.67-2.667,1-4,0.67-.333,1.33-0.667,2-1v-2c0.5-.885,2.53-3.114,3-4v-2h1v-2h1v-2h1c1.5-2.83,1.61-5.11,3-8h1v-3l2-2c0.33-2,.67-4,1-6l2-3v-3h1v-3h1v-4c2.01-6.175,3.94-12.7,4-21h-1c-3.17,2.533-15.97,2.448-21,4q-16.005,5-32,10l-2,2h-3C1405.21,362.935,1354.96,410.616,1355,485Zm477,171c6.76-.613,12.69-3.155,18-5,3.33-.667,6.67-1.333,10-2l2-2,6-1,2-2h3c0.03-.012,1.96-1.978,2-2,1.67-.333,3.33-0.667,5-1v-1l6-2v-1l6-2c0.33-.667.67-1.333,1-2l6-2c0.33-.667.67-1.333,1-2l4-1c1.25-.794,2.76-3.175,4-4,1.35-.9,3.69-1.085,5-2,0.67-1,1.33-2,2-3h2c0.67-1,1.33-2,2-3h2c0.67-1,1.33-2,2-3h2l6-7h2q4.005-4.5,8-9c1.67-1.333,3.33-2.667,5-4v-2l6-5v-2c1.33-1,2.67-2,4-3v-2l3-2c0.89-1.281,1.11-3.716,2-5l3-2c0.33-1.333.67-2.667,1-4,12.77-20.063,24.08-43.055,27-73-15.96,1.393-32.55,6.686-45,12l-6,1-2,2h-3v1l-4,1c-0.06.031-1.96,1.981-2,2h-3v1l-6,2v1l-4,1c-0.33.667-.67,1.333-1,2l-6,2c-1.25.786-2.77,3.178-4,4h-2c-0.33.667-.67,1.333-1,2h-2c-1.26.84-2.75,3.146-4,4h-2c-0.33.667-.67,1.333-1,2-1.18,1.071-3.03,1.3-4,2-1.33,1.667-2.67,3.333-4,5C1856.08,561.814,1832.32,604.812,1832,656ZM323,676c10.644,61.068,35,106.362,78,135l1,2c1.4,0.932,3.59,1.072,5,2l1,2c2.616,1.642,5.254,1.549,8,3a144.912,144.912,0,0,0,68,17c-0.221-4.866-1.825-8.407-3-12q-0.5-4-1-8h-1v-3h-1v-3l-2-3q-0.5-3-1-6l-2-2v-3l-2-2v-3h-1c-1.715-3.544-2.161-6.527-4-10h-1v-2h-1v-2h-1v-2c-0.471-.889-2.5-3.113-3-4v-2l-2-1-1-4-2-1-1-4c-1.106-1.735-3.854-3.36-5-5-0.89-1.274-1.11-3.726-2-5l-3-2v-2l-4-3v-2l-7-6v-2l-9-8-3-4h-2l-5-6h-2l-3-4h-2l-2-3h-2l-2-3h-2l-1-2-4-1c-1.228-.779-2.77-3.227-4-4l-6-2-1-2-4-1c-0.443-.236-3.6-2.824-4-3h-3C358.171,683.906,342.784,676.059,323,676ZM92,894c10.9,62.54,36.161,108.47,81,137,1.228,0.78,2.769,3.23,4,4,2.617,1.64,5.254,1.55,8,3a144.246,144.246,0,0,0,68,17q-1-6-2-12h-1c-0.333-2.67-.667-5.33-1-8h-1v-3h-1v-3l-2-3q-0.5-3-1-6l-2-2v-3l-2-2v-3h-1c-1.715-3.54-2.161-6.53-4-10h-1v-2h-1v-2h-1v-2c-0.471-.889-2.5-3.113-3-4v-2l-2-1-1-4-2-1-1-4c-1.106-1.735-3.855-3.36-5-5-0.89-1.274-1.11-3.726-2-5l-3-2v-2l-4-3v-2l-7-6v-2l-9-8-3-4h-2l-5-6h-2l-3-4h-2l-2-3h-2c-1.253-.847-2.742-3.164-4-4h-2q-0.5-1-1-2h-2c-1.231-.818-2.755-3.218-4-4h-2c-0.893-.5-3.106-2.522-4-3h-2v-1h-2c-0.794-.491-2.026-2.554-3-3h-3C128.611,902.6,112.661,894.062,92,894Zm994,34c-3.6,2.822-10.98.577-16,2v1l-10,1c-5.42,1.672-12.03,4.069-17,6l-6,1-2,2h-3c-45.1,19.97-77.614,54.262-97,100q-0.5,3-1,6c-1.916,4.97-4.351,11.57-6,17l-1,10h-1v7c-5.244,19.55-1.246,50.98,4,67v4h1v3h1v3l2,3q0.5,3,1,6l2,2v3c17.894,40.49,48.422,73.06,89,91,0.04,0.02,1.94,1.97,2,2,1.33,0.33,2.67.67,4,1v1q13.995,4.5,28,9h5v1h5v1h7v1h9c4.61,1.21,21.97,2.6,28,1v-1c2.67-.71,7.13-0.49,9-1h7v-1c3.33-.33,6.67-0.67,10-1,5.42-1.66,12.03-4.07,17-6,2-.33,4-0.67,6-1,28.05-11.95,54.11-28.78,71-52,1.67-1.33,3.33-2.67,5-4v-2c1-.67,2-1.33,3-2,0.89-1.28,1.11-3.72,2-5,1-.67,2-1.33,3-2,0.33-1.33.67-2.67,1-4,0.67-.33,1.33-0.67,2-1v-2c0.67-.33,1.33-0.67,2-1,1.31-2.09,1.69-5.9,3-8,0.67-.33,1.33-0.67,2-1v-2c0.05-.09,1.97-1.93,2-2,6.56-14.73,10.31-30.2,15-47q0.495-8.505,1-17c1.72-6.55,1.74-20.45,0-27q-0.495-7.995-1-16h-1c-0.33-3.33-.67-6.67-1-10-1.66-5.42-4.07-12.03-6-17-0.33-2-.67-4-1-6l-2-2v-3h-1c-0.33-1.33-.67-2.67-1-4-0.03-.06-1.98-1.96-2-2-0.33-1.67-.67-3.33-1-5-0.67-.33-1.33-0.67-2-1v-2h-1v-2c-0.48-.9-2.5-3.11-3-4v-2c-0.77-1.23-3.22-2.77-4-4-0.33-1.33-.67-2.67-1-4-1-.67-2-1.33-3-2-0.89-1.28-1.11-3.72-2-5l-3-2v-2c-1.67-1.333-3.33-2.667-5-4-15.07-20.7-41.21-39.065-66-50h-3l-2-2-6-1c-4.97-1.925-11.58-4.342-17-6l-10-1v-1h-7C1112.94,927.269,1098.78,928.041,1086,928Zm866,229c5.66,31.69,19.03,57.58,34,80,0.9,1.35,1.09,3.69,2,5,1.73,2.48,5.25,4.58,7,7v2c5.15,7.12,12.81,12.82,19,19,1.67,2,3.33,4,5,6h2c1.33,1.67,2.67,3.33,4,5h2c0.67,1,1.33,2,2,3h2c0.67,1,1.33,2,2,3h2c1.25,0.85,2.74,3.16,4,4h2c1.23,0.82,2.75,3.22,4,4,2,0.67,4,1.33,6,2,0.33,0.67.67,1.33,1,2,2,0.67,4,1.33,6,2v1c2,0.67,4,1.33,6,2v1h3c0.22,0.1,3.78,2.91,4,3h3c10.79,4.67,24.11,9.79,39,10-0.1-5.8-1.68-10.57-3-15q-1.5-8.505-3-17c-1.59-4.56-4.25-10.5-6-15-0.33-2-.67-4-1-6l-2-2v-3h-1c-0.67-2-1.33-4-2-6-0.03-.06-1.98-1.95-2-2C2070.84,1202.26,2023.6,1156.87,1952,1157Zm-231,218c3.9,21.85,12.08,41.18,21,58,1.7,3.21,2.11,6.97,4,10,0.67,0.33,1.33.67,2,1,0.33,1.33.67,2.67,1,4,0.67,0.33,1.33.67,2,1,0.93,1.4,1.07,3.6,2,5,0.67,0.33,1.33.67,2,1,0.9,1.35,1.09,3.69,2,5,1.73,2.48,5.25,4.58,7,7v2c5.15,7.12,12.81,12.82,19,19,1.67,2,3.33,4,5,6h2c1.33,1.67,2.67,3.33,4,5h2c0.67,1,1.33,2,2,3h2c0.67,1,1.33,2,2,3h2c1.25,0.85,2.74,3.16,4,4h2c1.23,0.82,2.75,3.22,4,4,2,0.67,4,1.33,6,2,0.33,0.67.67,1.33,1,2,2,0.67,4,1.33,6,2v1c2,0.67,4,1.33,6,2v1h3c12.71,5.6,28,12.87,46,13-0.1-5.79-1.7-10.77-3-15q-1.5-8.505-3-17c-1.59-4.56-4.25-10.5-6-15-0.33-2-.67-4-1-6l-2-2v-3h-1c-0.33-1.33-.67-2.67-1-4-0.03-.06-1.98-1.96-2-2v-3c-0.18-.41-2.76-3.55-3-4-0.33-1.33-.67-2.67-1-4-0.67-.33-1.33-0.67-2-1-0.67-2-1.33-4-2-6-0.67-.33-1.33-0.67-2-1-0.33-1.33-.67-2.67-1-4-0.67-.33-1.33-0.67-2-1v-2c-0.84-1.26-3.15-2.75-4-4v-2C1822.57,1406.43,1778.07,1374.88,1721,1375ZM214,1719c63.423-11.05,108.271-38.24,137-84,12.771-20.34,22.058-45.98,22-79-9,.81-16.815,4.46-24,7h-4l-2,2c-2,.33-4,0.67-6,1-0.208.09-3.787,2.91-4,3h-3v1c-1.333.33-2.667,0.67-4,1-0.06.03-1.957,1.98-2,2h-3c-0.075.03-1.9,1.95-2,2h-2c-0.333.67-.667,1.33-1,2-2.1,1.31-5.9,1.69-8,3-0.333.67-.667,1.33-1,2-1.333.33-2.667,0.67-4,1-1.234.78-2.767,3.21-4,4-1.333.33-2.667,0.67-4,1l-2,3c-1.266.88-3.748,1.11-5,2-2.255,1.6-5.747,6.37-8,8h-2q-3.5,4.005-7,8c-2.781,2.03-6.026,3.29-8,6v2q-4.5,4.005-9,8v2l-4,3v2c-1,.67-2,1.33-3,2v2c-0.847,1.25-3.163,2.74-4,4v2c-0.667.33-1.333,0.67-2,1-0.932,1.4-1.072,3.59-2,5-0.667.33-1.333,0.67-2,1l-2,6c-0.667.33-1.333,0.67-2,1-0.333,1.33-.667,2.67-1,4h-1l-2,6h-1v3C221.858,1682.93,214.079,1699.22,214,1719Zm467,155c7.38-.13,14.351-2.15,20-4q9.5-1.995,19-4v-1c2-.33,4-0.67,6-1l2-2c2-.33,4-0.67,6-1l2-2h3c0.23-.1,3.769-2.9,4-3h3v-1c2.883-1.4,5.179-1.5,8-3v-1c1.333-.33,2.667-0.67,4-1,0.333-.67.667-1.33,1-2,2-.67,4-1.33,6-2,0.333-.67.667-1.33,1-2,1.4-.93,3.6-1.07,5-2,0.333-.67.667-1.33,1-2h2c1.26-.84,2.746-3.15,4-4h2l2-3c1-.33,2-0.67,3-1l5-6c28.252-20.64,52.117-63.86,52-113-45.852,8.42-95.183,36.64-118,68-1.667,1.33-3.333,2.67-5,4-0.706.97-.926,2.81-2,4-0.667.33-1.333,0.67-2,1-0.888,1.25-1.117,3.73-2,5-1,.67-2,1.33-3,2v2c-0.835,1.24-3.206,2.75-4,4-0.333,1.33-.667,2.67-1,4-0.667.33-1.333,0.67-2,1-1.312,2.11-1.69,5.89-3,8-0.667.33-1.333,0.67-2,1-1.327,2.15-.911,4.54-2,7-0.017.04-1.97,1.94-2,2-0.333,1.33-.667,2.67-1,4h-1v3C687.05,1844.43,681.227,1858.33,681,1874Zm880-50c0.5,5.37,2.58,9.9,4,14v4h1v3h1v3l2,3c0.33,2,.67,4,1,6,3.13,7.33,7.41,15.22,11,22,1.7,3.21,2.11,6.97,4,10,3.77,6.05,9.03,12.17,13,18v2c1.6,2.25,6.37,5.75,8,8,22.69,31.27,69.02,62.22,118,67-0.13-7.1-2.22-13.54-4-19q-1.005-6-2-12h-1q-2.505-9-5-18l-2-2v-3l-2-2v-3h-1c-0.67-2-1.33-4-2-6h-1v-2h-1v-2h-1v-2c-0.47-.89-2.5-3.11-3-4v-2c-0.67-.33-1.33-0.67-2-1-0.33-1.33-.67-2.67-1-4-0.67-.33-1.33-0.67-2-1-0.33-1.33-.67-2.67-1-4-0.8-1.25-3.16-2.76-4-4v-2c-1-.67-2-1.33-3-2v-2c-1-.67-2-1.33-3-2v-2c-1.67-1.33-3.33-2.67-5-4C1656.05,1848.9,1612.71,1824.32,1561,1824ZM899,2105c5.8-.1,10.574-1.68,15-3l17-3,3-2q5-1.005,10-2l2-2c2-.33,4-0.67,6-1l2-2h3c0.23-.1,3.769-2.9,4-3h3v-1c2.883-1.4,5.179-1.5,8-3v-1c1.333-.33,2.667-0.67,4-1,0.333-.67.667-1.33,1-2,2-.67,4-1.33,6-2,0.333-.67.667-1.33,1-2,1.4-.93,3.6-1.07,5-2,0.333-.67.667-1.33,1-2h2c1.26-.84,2.746-3.15,4-4h2c0.333-.67.667-1.33,1-2,1.18-1.07,3.03-1.3,4-2,1.33-1.67,2.67-3.33,4-5,28.72-20.94,53.13-64.08,53-114-55.9,10.27-104.822,44.86-132,84v2c-0.667.33-1.333,0.67-2,1-0.333,1.33-.667,2.67-1,4-0.667.33-1.333,0.67-2,1v2c-0.667.33-1.333,0.67-2,1-1.312,2.09-1.694,5.9-3,8-0.667.33-1.333,0.67-2,1-1.327,2.15-.911,4.54-2,7-0.017.04-1.97,1.94-2,2-0.333,1.33-.667,2.67-1,4h-1v3C905.03,2075.48,899.43,2089.35,899,2105Z"/>
</svg>
