<svg width="304" height="304" xmlns="http://www.w3.org/2000/svg" xmlns:xlink="http://www.w3.org/1999/xlink" overflow="hidden"><defs><clipPath id="clip0"><rect x="489" y="208" width="304" height="304"/></clipPath><clipPath id="clip1"><path d="M663.718 332.204C670.908 337.596 676.299 348.38 677.522 360.62 679.427 379.851 659.71 396.243 642.222 395.92 619.001 396.243 605.018 378.665 605.018 359.344 605.018 340.256 622.595 323.721 641.917 323.721 649.987 323.721 657.625 326.758 663.538 331.36"/></clipPath></defs><g clip-path="url(#clip0)" transform="translate(-489 -208)"><g clip-path="url(#clip1)"><path d="M792.748 385.064C792.587 383.41 792.263 381.775 791.85 380.139 790.232 373.794 787.015 368.151 782.504 363.64 780.401 361.537 778.01 359.685 775.368 358.104 770.893 355.462 766.022 353.844 761.008 353.287 759.264 353.089 757.503 353.053 755.723 353.125 751.518 349.297 746.863 345.828 741.776 342.809 736.708 339.807 731.459 337.381 726.086 335.511 727.631 331.27 729.59 327.1 731.963 323.056 734.695 318.437 737.894 314.249 741.399 310.457 742.729 310.457 744.041 310.403 745.371 310.241 747.024 310.079 748.66 309.756 750.296 309.342 756.64 307.725 762.284 304.508 766.795 299.996 768.898 297.893 770.749 295.503 772.331 292.861 774.973 288.385 776.59 283.515 777.148 278.5 777.615 274.294 777.327 270.017 776.267 265.793 772.079 264.751 767.783 264.499 763.596 264.966 752.758 266.171 742.621 272.263 736.654 282.328 733.994 286.804 732.376 291.675 731.837 296.689 731.585 298.954 731.567 301.254 731.747 303.537 728.081 307.635 724.755 312.128 721.844 317.017 718.896 321.978 716.524 327.136 714.672 332.384 698.874 329.257 682.626 330.677 667.816 336.176 665.408 333.48 662.568 331.144 659.387 329.257 651.137 324.368 641.467 322.966 632.157 325.357 630.486 325.788 628.886 326.363 627.322 327.01 623.602 315.992 622.47 304.13 624.195 292.429 639.149 294.622 654.336 292.825 668.212 287.415 671.555 288.008 674.969 288.134 678.366 287.72 680.02 287.559 681.656 287.235 683.291 286.822 689.636 285.204 695.279 281.987 699.791 277.476 701.893 275.373 703.745 272.982 705.326 270.34 707.968 265.865 709.586 260.994 710.143 255.98 710.61 251.774 710.323 247.496 709.263 243.273 705.075 242.23 700.779 241.978 696.591 242.446 685.753 243.65 675.617 249.743 669.649 259.808 666.989 264.283 665.372 269.154 664.833 274.169 664.761 274.816 664.743 275.463 664.707 276.11 652.826 280.891 639.778 282.598 626.927 280.891 628.598 275.606 630.863 270.43 633.811 265.452 636.327 261.21 639.203 257.328 642.366 253.787 644.361 253.895 646.356 253.859 648.351 253.625 650.005 253.463 651.64 253.14 653.276 252.727 659.62 251.109 665.264 247.892 669.775 243.38 671.878 241.278 673.729 238.887 675.311 236.245 677.953 231.77 679.571 226.899 680.128 221.884 680.595 217.679 680.308 213.401 679.247 209.177 675.059 208.135 670.764 207.883 666.576 208.35 655.702 209.591 645.565 215.684 639.598 225.749 636.938 230.224 635.32 235.095 634.781 240.109 634.602 241.673 634.566 243.255 634.602 244.854 630.522 249.24 626.837 254.11 623.656 259.484 620.043 265.577 617.275 271.94 615.316 278.428 609.691 276.721 604.173 274.33 598.907 271.203 595.042 268.902 591.448 266.296 588.123 263.421 588.195 261.587 588.159 259.754 587.943 257.921 587.781 256.267 587.458 254.632 587.044 252.996 585.427 246.652 582.209 241.008 577.698 236.497 575.595 234.394 573.205 232.543 570.563 230.961 566.087 228.319 561.217 226.701 556.202 226.144 551.996 225.677 547.719 225.964 543.495 227.025 542.453 231.212 542.201 235.508 542.668 239.696 543.872 250.534 549.965 260.671 560.03 266.638 564.506 269.298 569.376 270.915 574.391 271.455 576.116 271.652 577.86 271.688 579.603 271.616 583.665 275.211 588.087 278.464 592.85 281.286 599.212 285.06 605.862 287.9 612.638 289.877 610.32 304.615 611.901 319.623 617.006 333.409 614.328 335.817 611.973 338.639 610.086 341.838 604.101 351.921 603.634 363.783 607.803 373.884 596.372 377.713 584.079 378.773 571.983 376.778 574.894 360.297 572.881 343.42 566.501 328.232 566.698 325.878 566.698 323.487 566.429 321.115 566.267 319.461 565.944 317.826 565.53 316.19 563.913 309.846 560.695 304.202 556.184 299.691 554.081 297.588 551.691 295.737 549.049 294.155 544.573 291.513 539.703 289.895 534.688 289.338 530.482 288.871 526.205 289.158 521.981 290.219 520.939 294.407 520.687 298.702 521.154 302.89 522.358 313.728 528.451 323.865 538.516 329.832 542.992 332.492 547.862 334.109 552.877 334.649 554.063 334.792 555.267 334.846 556.472 334.846 561.217 347.158 562.672 360.656 560.498 373.884 555.645 372.249 550.864 370.11 546.281 367.378 542.093 364.898 538.211 362.022 534.652 358.841 534.742 356.9 534.706 354.958 534.472 353.017 534.311 351.364 533.987 349.728 533.574 348.093 531.956 341.748 528.739 336.105 524.228 331.593 522.125 329.49 519.734 327.639 517.092 326.057 512.617 323.415 507.746 321.798 502.732 321.241 498.526 320.773 494.248 321.061 490.024 322.121 488.982 326.309 488.73 330.605 489.198 334.792 490.438 345.738 496.531 355.893 506.596 361.86 511.071 364.52 515.942 366.138 520.956 366.677 522.574 366.857 524.21 366.893 525.863 366.857 530.249 370.883 535.065 374.495 540.296 377.605 545.885 380.93 551.727 383.518 557.658 385.459 556.022 390.33 553.866 395.111 551.152 399.694 548.797 403.684 546.101 407.333 543.154 410.694 541.428 410.64 539.685 410.676 537.977 410.873 527.139 412.078 517.002 418.171 511.035 428.236 508.375 432.711 506.758 437.582 506.218 442.596 505.733 446.784 506.039 451.098 507.099 455.303 511.215 456.346 515.511 456.633 519.788 456.13 521.442 455.968 523.077 455.645 524.713 455.231 531.057 453.614 536.701 450.397 541.212 445.885 543.315 443.782 545.167 441.392 546.748 438.75 549.39 434.275 551.008 429.404 551.565 424.389 551.763 422.556 551.799 420.705 551.727 418.854 555.267 414.845 558.503 410.442 561.324 405.679 564.65 400.071 567.238 394.248 569.179 388.299 584.438 390.995 600.039 389.485 614.31 384.183 616.682 386.843 619.504 389.18 622.739 391.103 630.989 395.991 640.659 397.393 649.969 395.003 651.64 394.572 653.258 394.032 654.821 393.385 658.218 403.558 659.423 414.414 658.236 425.198 640.694 422.466 622.775 425.252 607.013 432.927 604.91 432.801 602.789 432.855 600.704 433.088 589.866 434.293 579.729 440.385 573.762 450.451 571.102 454.926 569.484 459.797 568.945 464.811 568.46 468.999 568.765 473.312 569.826 477.518 573.942 478.561 578.237 478.848 582.515 478.345 584.169 478.183 585.804 477.86 587.44 477.446 593.784 475.829 599.428 472.612 603.939 468.1 606.042 465.997 607.893 463.607 609.475 460.965 612.117 456.49 613.735 451.619 614.292 446.604 614.453 445.22 614.489 443.818 614.471 442.434 627.412 436.665 641.881 434.634 656.08 436.773 654.354 442.992 651.802 449.085 648.369 454.908 645.961 458.97 643.211 462.708 640.191 466.123 638.502 466.069 636.794 466.123 635.123 466.303 624.285 467.507 614.148 473.6 608.181 483.665 605.521 488.14 603.903 493.011 603.364 498.026 602.879 502.214 603.184 506.527 604.245 510.733 608.361 511.775 612.656 512.063 616.934 511.56 618.587 511.398 620.223 511.074 621.858 510.661 628.203 509.043 633.847 505.826 638.358 501.315 640.461 499.212 642.312 496.822 643.894 494.18 646.536 489.704 648.153 484.833 648.711 479.819 648.926 477.95 648.962 476.062 648.854 474.157 652.431 470.131 655.684 465.692 658.542 460.893 662.622 454.027 665.623 446.802 667.6 439.451 672.813 441.122 677.935 443.405 682.842 446.317 686.868 448.707 690.57 451.439 693.967 454.423 693.877 456.31 693.931 458.179 694.147 460.048 695.351 470.886 701.444 481.023 711.509 486.99 715.984 489.65 720.855 491.268 725.87 491.807 730.058 492.292 734.371 491.987 738.577 490.926 739.619 486.81 739.907 482.515 739.404 478.237 739.242 476.584 738.918 474.948 738.505 473.312 736.887 466.968 733.67 461.324 729.159 456.813 727.056 454.71 724.666 452.859 722.023 451.277 717.548 448.635 712.677 447.018 707.663 446.46 705.991 446.281 704.302 446.245 702.594 446.299 698.425 442.542 693.841 439.127 688.827 436.162 682.734 432.549 676.353 429.781 669.847 427.804 671.591 413.911 669.901 399.874 665.102 386.915 665.569 386.484 666.037 386.07 666.486 385.621 668.589 383.5 670.458 381.128 672.022 378.486 676.911 370.236 678.312 360.566 675.922 351.256 675.491 349.584 674.916 347.985 674.269 346.421 686.167 342.449 699.018 341.461 711.581 343.797 708.436 359.344 709.712 375.34 714.942 390.006 714.439 393.206 714.367 396.441 714.744 399.622 715.949 410.46 722.042 420.597 732.107 426.564 736.582 429.224 741.453 430.842 746.467 431.381 750.655 431.866 754.969 431.561 759.174 430.5 760.217 426.384 760.504 422.089 760.001 417.811 759.839 416.158 759.516 414.522 759.102 412.886 757.485 406.542 754.268 400.898 749.756 396.387 747.653 394.284 745.263 392.433 742.621 390.851 738.146 388.209 733.275 386.591 728.26 386.034 727.505 385.944 726.75 385.926 725.996 385.891 721.592 373.489 720.496 360.009 723.03 346.853 727.416 348.416 731.693 350.429 735.845 352.874 740.033 355.354 743.879 358.212 747.384 361.339 747.312 363.154 747.348 364.97 747.564 366.767 748.768 377.605 754.861 387.742 764.926 393.709 769.401 396.369 774.272 397.987 779.286 398.526 783.474 399.011 787.788 398.705 791.994 397.645 792.964 393.619 793.252 389.323 792.748 385.064ZM746.791 288.367C750.907 281.412 758.006 277.278 765.501 276.631 765.465 277.08 765.411 277.53 765.339 277.979 764.89 281.07 763.847 284.09 762.176 286.858 758.887 292.411 753.639 296.348 747.384 297.947 746.09 298.289 744.796 298.504 743.484 298.612 743.789 295.036 744.904 291.549 746.791 288.367ZM679.768 265.847C683.884 258.891 690.984 254.757 698.479 254.11 698.443 254.56 698.389 255.009 698.317 255.458 697.867 258.55 696.825 261.569 695.153 264.337 691.864 269.891 686.616 273.827 680.361 275.427 679.067 275.768 677.773 275.984 676.461 276.092 676.767 272.515 677.881 269.028 679.768 265.847ZM649.735 231.752C653.851 224.796 660.95 220.662 668.445 220.015 668.409 220.464 668.355 220.914 668.283 221.363 667.834 224.455 666.792 227.474 665.12 230.242 661.831 235.796 656.583 239.732 650.328 241.331 649.034 241.673 647.74 241.889 646.428 241.996 646.733 238.42 647.848 234.933 649.735 231.752ZM554.333 237.809C554.782 237.845 555.232 237.899 555.681 237.97 558.772 238.42 561.792 239.462 564.56 241.134 570.113 244.423 574.05 249.671 575.649 255.926 575.991 257.22 576.206 258.514 576.314 259.826 572.737 259.52 569.251 258.406 566.069 256.519 559.114 252.403 554.98 245.304 554.333 237.809ZM544.573 319.767C537.618 315.651 533.484 308.551 532.837 301.057 533.286 301.093 533.735 301.147 534.185 301.218 537.276 301.668 540.296 302.71 543.064 304.382 548.617 307.671 552.554 312.919 554.153 319.174 554.495 320.468 554.71 321.762 554.818 323.074 551.224 322.768 547.737 321.654 544.573 319.767ZM500.88 333.013C501.33 333.049 501.779 333.103 502.228 333.175 505.32 333.624 508.339 334.667 511.107 336.338 516.661 339.627 520.597 344.875 522.197 351.13 522.538 352.424 522.754 353.718 522.862 355.03 519.285 354.725 515.798 353.611 512.617 351.723 505.661 347.607 501.527 340.526 500.88 333.013ZM539.739 423.868C539.289 426.959 538.247 429.979 536.575 432.747 533.286 438.301 528.038 442.237 521.783 443.836 520.489 444.178 519.195 444.394 517.883 444.501 518.189 440.925 519.303 437.438 521.19 434.257 525.306 427.301 532.405 423.167 539.9 422.52 539.864 422.969 539.81 423.419 539.739 423.868ZM599.266 454.998C595.977 460.551 590.729 464.488 584.474 466.087 583.18 466.429 581.886 466.644 580.574 466.752 580.879 463.176 581.994 459.689 583.881 456.508 587.979 449.588 595.042 445.454 602.501 444.789 602.519 444.843 602.537 444.915 602.573 444.969 602.537 445.346 602.501 445.742 602.447 446.119 601.962 449.21 600.92 452.212 599.266 454.998ZM636.794 479.334C636.345 482.425 635.302 485.444 633.631 488.212 630.342 493.766 625.094 497.702 618.839 499.302 617.545 499.643 616.251 499.859 614.939 499.967 615.244 496.39 616.359 492.903 618.246 489.722 622.362 482.766 629.461 478.633 636.956 477.986 636.92 478.435 636.866 478.884 636.794 479.334ZM727.002 476.296C727.344 477.59 727.559 478.884 727.667 480.196 724.09 479.891 720.604 478.776 717.422 476.889 710.467 472.773 706.333 465.674 705.686 458.179 706.135 458.215 706.584 458.269 707.034 458.341 710.125 458.79 713.145 459.833 715.913 461.504 721.466 464.793 725.402 470.041 727.002 476.296ZM661.813 372.536C658.524 378.09 653.276 382.026 647.021 383.626 640.766 385.225 634.278 384.291 628.724 381.002 627.7 380.391 626.747 379.69 625.849 378.953 625.92 378.917 626.01 378.881 626.082 378.827 625.435 378.306 624.806 377.731 624.195 377.12 621.858 374.783 620.115 372.105 618.929 369.247 618.857 369.283 618.803 369.301 618.731 369.337 615.981 362.561 616.269 354.635 620.277 347.895 621.319 346.116 622.577 344.516 623.997 343.096 627.017 340.077 630.827 337.902 635.069 336.805 641.323 335.206 647.812 336.14 653.366 339.43 658.919 342.719 662.856 347.985 664.455 354.222 666.037 360.494 665.102 366.983 661.813 372.536ZM747.617 415.87C747.959 417.164 748.175 418.458 748.282 419.77 744.706 419.465 741.219 418.35 738.038 416.463 731.082 412.347 726.948 405.248 726.301 397.753 726.75 397.789 727.2 397.843 727.649 397.915 730.741 398.364 733.76 399.406 736.528 401.078 742.1 404.367 746.036 409.615 747.617 415.87ZM770.857 383.662C763.901 379.546 759.767 372.447 759.12 364.952 759.57 364.988 760.019 365.042 760.468 365.113 763.56 365.563 766.579 366.605 769.347 368.277 774.901 371.566 778.837 376.814 780.437 383.069 780.778 384.363 780.994 385.657 781.102 386.969 777.525 386.663 774.038 385.549 770.857 383.662Z" fill="#CCA766"/></g></g></svg>